<svg xmlns="http://www.w3.org/2000/svg" version="1.1" xmlns:xlink="http://www.w3.org/1999/xlink" xmlns:svgjs="http://svgjs.dev/svgjs" width="1000" height="166" viewBox="0 0 1000 166"><g transform="matrix(1,0,0,1,-0.6060598924241276,-0.5723336603271747)"><svg viewBox="0 0 396 66" data-background-color="#ffffff" preserveAspectRatio="xMidYMid meet" height="166" width="1000" xmlns="http://www.w3.org/2000/svg" xmlns:xlink="http://www.w3.org/1999/xlink"><g id="tight-bounds" transform="matrix(1,0,0,1,0.24000028260002182,0.22755434687707066)"><svg viewBox="0 0 395.52 65.54488934924063" height="65.54488934924063" width="395.52"><g><svg viewBox="0 0 482.7310489733333 79.99735333333332" height="65.54488934924063" width="395.52"><g transform="matrix(1,0,0,1,87.21104897333332,24.72034333333333)"><svg viewBox="0 0 395.52 30.556666666666665" height="30.556666666666665" width="395.52"><g><svg viewBox="0 0 395.52 30.556666666666665" height="30.556666666666665" width="395.52"><g><svg viewBox="0 0 395.52 30.556666666666665" height="30.556666666666665" width="395.52"><g transform="matrix(1,0,0,1,0,0)"><svg width="395.52" viewBox="3.799999952316284 -35 460.760009765625 35.599998474121094" height="30.556666666666665" data-palette-color="#ffffff"><path d="M16-18.2Q19.5-17.5 21.45-15.58 23.4-13.65 23.4-9.75L23.4-9.75Q23.4-4.9 20.23-2.45 17.05 0 11.5 0L11.5 0 3.8 0 3.8-34.45 10.35-34.45Q16.05-34.45 19.1-32.2 22.15-29.95 22.15-25.75L22.15-25.75Q22.15-22.8 20.53-20.9 18.9-19 16-18.2L16-18.2ZM10.8-30.85L8.35-30.85 8.35-19.8 11.3-19.8Q14.4-19.8 15.95-21.23 17.5-22.65 17.5-25.4L17.5-25.4Q17.5-28.35 15.88-29.6 14.25-30.85 10.8-30.85L10.8-30.85ZM11.5-3.65Q15-3.65 16.82-5.03 18.65-6.4 18.65-9.75L18.65-9.75Q18.65-13.2 16.93-14.73 15.2-16.25 11.65-16.25L11.65-16.25 8.35-16.25 8.35-3.65 11.5-3.65ZM28.85-34.45L44.65-34.45 44.15-30.8 33.4-30.8 33.4-19.35 42.75-19.35 42.75-15.7 33.4-15.7 33.4-3.65 44.85-3.65 44.85 0 28.85 0 28.85-34.45ZM61.09-35Q63.55-35 65.4-34.18 67.25-33.35 69.09-31.65L69.09-31.65 66.75-28.9Q65.34-30.15 64.05-30.73 62.75-31.3 61.2-31.3L61.2-31.3Q53.84-31.3 53.84-17.25L53.84-17.25Q53.84-3.25 61.34-3.25L61.34-3.25Q63.05-3.25 64.32-3.93 65.59-4.6 66.95-5.85L66.95-5.85 69.4-3.2Q67.9-1.55 65.84-0.48 63.8 0.6 61.25 0.6L61.25 0.6Q55.7 0.6 52.37-3.9 49.05-8.4 49.05-17.25L49.05-17.25Q49.05-23.2 50.62-27.18 52.2-31.15 54.92-33.08 57.65-35 61.09-35L61.09-35ZM84.49-35Q90.19-35 93.39-30.58 96.59-26.15 96.59-17.2L96.59-17.2Q96.59-8.35 93.39-3.88 90.19 0.6 84.49 0.6L84.49 0.6Q78.79 0.6 75.57-3.8 72.34-8.2 72.34-17.15L72.34-17.15Q72.34-26 75.59-30.5 78.84-35 84.49-35L84.49-35ZM84.49-31.3Q80.89-31.3 79.02-28 77.14-24.7 77.14-17.15L77.14-17.15Q77.14-9.65 79.04-6.4 80.94-3.15 84.49-3.15L84.49-3.15Q88.09-3.15 89.94-6.38 91.79-9.6 91.79-17.2L91.79-17.2Q91.79-24.75 89.94-28.03 88.09-31.3 84.49-31.3L84.49-31.3ZM126.79-34.45L129.09 0 124.79 0 123.89-15.65Q123.24-25.35 123.34-29.8L123.34-29.8 117.49-3.9 113.24-3.9 107.09-29.85 107.14-27.55Q107.14-23.65 106.74-15.35L106.74-15.35 105.89 0 101.59 0 103.94-34.45 109.84-34.45 115.44-9.2 120.74-34.45 126.79-34.45ZM135.64-34.45L151.44-34.45 150.94-30.8 140.19-30.8 140.19-19.35 149.54-19.35 149.54-15.7 140.19-15.7 140.19-3.65 151.64-3.65 151.64 0 135.64 0 135.64-34.45ZM188.13 0L183.48 0 181.43-8.75 171.13-8.75 169.08 0 164.58 0 173.53-34.45 179.18-34.45 188.13 0ZM176.28-30.65L171.98-12.4 180.58-12.4 176.28-30.65ZM209.63-34.45Q215.68-34.45 218.8-31.75 221.93-29.05 221.93-23.8L221.93-23.8Q221.93-18.2 218.75-15.48 215.58-12.75 209.73-12.75L209.73-12.75 207.48-12.75 207.48 0 202.93 0 202.93-34.45 209.63-34.45ZM209.73-16.35Q213.58-16.35 215.38-17.98 217.18-19.6 217.18-23.75L217.18-23.75Q217.18-27.5 215.35-29.18 213.53-30.85 209.73-30.85L209.73-30.85 207.48-30.85 207.48-16.35 209.73-16.35ZM247.13 0L242.13 0 235.43-14.75Q235.08-14.7 234.38-14.7L234.38-14.7 231.28-14.7 231.28 0 226.73 0 226.73-34.45 233.63-34.45Q239.68-34.45 242.63-31.95 245.58-29.45 245.58-24.75L245.58-24.75Q245.58-21.45 244.03-19.07 242.48-16.7 239.58-15.6L239.58-15.6 247.13 0ZM233.98-18.2Q237.58-18.2 239.18-19.78 240.78-21.35 240.78-24.75L240.78-24.75Q240.78-27.9 239.13-29.38 237.48-30.85 233.58-30.85L233.58-30.85 231.28-30.85 231.28-18.2 233.98-18.2ZM262.42-35Q268.12-35 271.32-30.58 274.52-26.15 274.52-17.2L274.52-17.2Q274.52-8.35 271.32-3.88 268.12 0.6 262.42 0.6L262.42 0.6Q256.72 0.6 253.5-3.8 250.27-8.2 250.27-17.15L250.27-17.15Q250.27-26 253.52-30.5 256.77-35 262.42-35L262.42-35ZM262.42-31.3Q258.82-31.3 256.95-28 255.07-24.7 255.07-17.15L255.07-17.15Q255.07-9.65 256.97-6.4 258.87-3.15 262.42-3.15L262.42-3.15Q266.02-3.15 267.87-6.38 269.72-9.6 269.72-17.2L269.72-17.2Q269.72-24.75 267.87-28.03 266.02-31.3 262.42-31.3L262.42-31.3ZM291.62-35Q294.27-35 296.3-34.08 298.32-33.15 300.32-31.25L300.32-31.25 297.82-28.7Q296.22-30.1 294.85-30.7 293.47-31.3 291.62-31.3L291.62-31.3Q288.17-31.3 286-28.1 283.82-24.9 283.82-17.25L283.82-17.25Q283.82-11.9 284.65-8.83 285.47-5.75 287.1-4.45 288.72-3.15 291.22-3.15L291.22-3.15Q293.92-3.15 296.17-4.65L296.17-4.65 296.17-15.35 291.47-15.35 290.97-19.05 300.57-19.05 300.57-2.45Q296.17 0.6 291.17 0.6L291.17 0.6Q279.02 0.6 279.02-17.25L279.02-17.25Q279.02-23.1 280.72-27.1 282.42-31.1 285.27-33.05 288.12-35 291.62-35L291.62-35ZM327.37 0L322.37 0 315.67-14.75Q315.32-14.7 314.62-14.7L314.62-14.7 311.52-14.7 311.52 0 306.97 0 306.97-34.45 313.87-34.45Q319.92-34.45 322.87-31.95 325.82-29.45 325.82-24.75L325.82-24.75Q325.82-21.45 324.27-19.07 322.72-16.7 319.82-15.6L319.82-15.6 327.37 0ZM314.22-18.2Q317.82-18.2 319.42-19.78 321.02-21.35 321.02-24.75L321.02-24.75Q321.02-27.9 319.37-29.38 317.72-30.85 313.82-30.85L313.82-30.85 311.52-30.85 311.52-18.2 314.22-18.2ZM352.22 0L347.57 0 345.52-8.75 335.22-8.75 333.17 0 328.67 0 337.62-34.45 343.27-34.45 352.22 0ZM340.37-30.65L336.07-12.4 344.67-12.4 340.37-30.65ZM380.56-34.45L382.86 0 378.56 0 377.66-15.65Q377.01-25.35 377.11-29.8L377.11-29.8 371.26-3.9 367.01-3.9 360.86-29.85 360.91-27.55Q360.91-23.65 360.51-15.35L360.51-15.35 359.66 0 355.36 0 357.71-34.45 363.61-34.45 369.21-9.2 374.51-34.45 380.56-34.45ZM413.56-34.45L415.86 0 411.56 0 410.66-15.65Q410.01-25.35 410.11-29.8L410.11-29.8 404.26-3.9 400.01-3.9 393.86-29.85 393.91-27.55Q393.91-23.65 393.51-15.35L393.51-15.35 392.66 0 388.36 0 390.71-34.45 396.61-34.45 402.21-9.2 407.51-34.45 413.56-34.45ZM422.41-34.45L438.21-34.45 437.71-30.8 426.96-30.8 426.96-19.35 436.31-19.35 436.31-15.7 426.96-15.7 426.96-3.65 438.41-3.65 438.41 0 422.41 0 422.41-34.45ZM464.56 0L459.56 0 452.86-14.75Q452.51-14.7 451.81-14.7L451.81-14.7 448.71-14.7 448.71 0 444.16 0 444.16-34.45 451.06-34.45Q457.11-34.45 460.06-31.95 463.01-29.45 463.01-24.75L463.01-24.75Q463.01-21.45 461.46-19.07 459.91-16.7 457.01-15.6L457.01-15.6 464.56 0ZM451.41-18.2Q455.01-18.2 456.61-19.78 458.21-21.35 458.21-24.75L458.21-24.75Q458.21-27.9 456.56-29.38 454.91-30.85 451.01-30.85L451.01-30.85 448.71-30.85 448.71-18.2 451.41-18.2Z" opacity="1" transform="matrix(1,0,0,1,0,0)" fill="#ffffff" class="undefined-text-0" data-fill-palette-color="primary" id="text-0"></path></svg></g></svg></g></svg></g></svg></g><g><svg viewBox="0 0 79.99735333333332 79.99735333333332" height="79.99735333333332" width="79.99735333333332"><g><svg xmlns="http://www.w3.org/2000/svg" xmlns:xlink="http://www.w3.org/1999/xlink" version="1.1" x="0" y="0" viewBox="14.610000610351562 14.609999656677246 70.78099822998047 70.78099822998047" enable-background="new 0 0 100 100" xml:space="preserve" height="79.99735333333332" width="79.99735333333332" class="icon-icon-0" data-fill-palette-color="accent" id="icon-0"><path d="M42.272 50.423c-1.33 0-2.41 1.08-2.41 2.41s1.08 2.409 2.41 2.409 2.41-1.079 2.41-2.409S43.603 50.423 42.272 50.423zM50 50.423c-1.33 0-2.41 1.08-2.41 2.41s1.08 2.409 2.41 2.409c1.331 0 2.409-1.079 2.409-2.409S51.331 50.423 50 50.423zM57.728 50.423c-1.33 0-2.409 1.08-2.409 2.41s1.079 2.409 2.409 2.409c1.331 0 2.409-1.079 2.409-2.409S59.059 50.423 57.728 50.423zM35.966 40.072l-10 9.928 10 9.93 2.548-2.566L31.1 50l7.415-7.361L35.966 40.072zM64.034 40.072l-2.549 2.566L68.9 50l-7.415 7.363 2.549 2.566L74.033 50 64.034 40.072zM50 14.61c-19.514 0-35.39 15.876-35.39 35.39 0 19.515 15.876 35.391 35.39 35.391 19.515 0 35.391-15.876 35.391-35.391C85.391 30.486 69.515 14.61 50 14.61zM50 81.773c-17.52 0-31.774-14.253-31.774-31.773 0-17.52 14.254-31.774 31.774-31.774 17.521 0 31.773 14.254 31.773 31.774C81.773 67.521 67.521 81.773 50 81.773z" fill="#ffffff" data-fill-palette-color="accent"></path></svg></g></svg></g></svg></g><defs></defs></svg><rect width="395.52" height="65.54488934924063" fill="none" stroke="none" visibility="hidden"></rect></g></svg></g></svg>